<?xml version="1.0" encoding="UTF-8"?>
<svg version="1.1" xmlns="http://www.w3.org/2000/svg" width="460" height="460">
<path d="M0 0 C4.8012555 3.34971314 7.91492628 7.31319851 9.6875 12.875 C9.88707082 15.29203776 9.98121675 17.71866616 10.00634766 20.14379883 C10.01639328 20.85653961 10.0264389 21.5692804 10.03678894 22.30361938 C10.06754241 24.64641556 10.08463396 26.98909786 10.1015625 29.33203125 C10.12028048 30.96157302 10.13985437 32.59110517 10.1602478 34.22062683 C10.21150851 38.49980994 10.25116657 42.77902445 10.28839111 47.05834961 C10.32846884 51.42895233 10.37954397 55.7994251 10.4296875 60.16992188 C10.52637499 68.73819238 10.61080262 77.30652735 10.6875 85.875 C11.61473877 85.33085449 12.54197754 84.78670898 13.49731445 84.22607422 C14.74415653 83.50202569 15.99115382 82.77824441 17.23828125 82.0546875 C17.84579224 81.69721436 18.45330322 81.33974121 19.07922363 80.97143555 C38.05667848 70.00333354 61.60893061 67.53885522 82.76708984 73.04077148 C104.40446958 79.22696966 123.12408264 92.42474438 134.61328125 111.92578125 C134.96777344 112.56902344 135.32226562 113.21226562 135.6875 113.875 C138.31226609 111.44287729 140.22293995 108.75364141 142.25 105.8125 C155.7944582 87.16433291 174.92362555 75.33385435 197.60546875 71.34375 C221.35955567 68.23540851 244.37287675 73.50132688 263.6875 87.875 C267.18683766 90.72050028 270.46942664 93.71622113 273.6875 96.875 C274.36425781 97.52726562 275.04101562 98.17953125 275.73828125 98.8515625 C285.47816846 108.96230714 292.65841494 122.2088953 295.6875 135.875 C295.90921875 136.8340625 296.1309375 137.793125 296.359375 138.78125 C301.15367494 162.88232537 295.10084308 186.55029344 281.6875 206.875 C278.87654687 210.41651066 275.85915016 213.65687878 272.6875 216.875 C271.87925781 217.79152344 271.87925781 217.79152344 271.0546875 218.7265625 C258.80667207 232.20553426 238.80319678 240.90141087 220.89013672 242.05517578 C194.51416894 243.22121841 172.82595663 237.14852816 152.8515625 219.34765625 C146.31357378 213.10522044 141.37904758 206.57774144 136.6875 198.875 C136.14222656 199.62523437 135.59695312 200.37546875 135.03515625 201.1484375 C120.1649342 221.33126879 101.77520049 237.37448089 76.17724609 241.57763672 C61.18329126 243.36844246 45.98610316 242.88772869 31.6875 237.875 C30.62789062 237.51277344 29.56828125 237.15054688 28.4765625 236.77734375 C8.33946208 229.14181081 -9.30095734 212.49347617 -18.21728516 192.88525391 C-19.08170066 190.83281619 -19.89818593 188.76992459 -20.6875 186.6875 C-20.92605713 186.05908203 -21.16461426 185.43066406 -21.41040039 184.78320312 C-25.12200613 174.40626708 -25.60758708 164.25610572 -25.5871582 153.33105469 C-25.59151304 151.78268184 -25.59669874 150.23431115 -25.60264587 148.6859436 C-25.61595749 144.5085556 -25.61662383 140.33125848 -25.61408257 136.15385342 C-25.6130085 132.65953834 -25.61790683 129.16524133 -25.622688 125.67093015 C-25.63375391 117.42904367 -25.63423566 109.1872028 -25.62817383 100.9453125 C-25.62212233 92.45073002 -25.63448149 83.95631269 -25.6557439 75.46175838 C-25.67335985 68.15450638 -25.67936166 60.84730698 -25.67610615 53.54003453 C-25.67429471 49.1815384 -25.67691653 44.82316037 -25.69082069 40.46468353 C-25.70339598 36.37041506 -25.70145791 32.27640486 -25.68840981 28.18214035 C-25.68604463 26.68174782 -25.68877665 25.1813371 -25.69703293 23.68096542 C-25.70750658 21.62952033 -25.6993963 19.57894118 -25.6867218 17.52752686 C-25.68688954 16.38089947 -25.68705729 15.23427208 -25.68723011 14.05289841 C-25.18390454 9.78444632 -23.71978279 6.41788035 -20.8125 3.23046875 C-14.40393532 -1.75953343 -7.71690369 -2.62083522 0 0 Z M19.6875 124.875 C10.87476435 136.46911363 8.14893478 149.57664789 9.6875 163.875 C12.3131782 177.40391819 19.34219688 189.42264981 30.5 197.5625 C42.92270691 205.8691376 55.85872188 208.80622908 70.75 206.375 C84.96532104 202.82116974 97.01885843 194.51108999 104.6875 181.875 C111.88053582 168.57088919 113.39532662 155.7688065 109.734375 141.125 C105.02404572 126.50188821 95.25415421 117.77843592 82.19140625 110.48046875 C60.06327679 99.94889911 35.86874551 107.72343108 19.6875 124.875 Z M181.6875 115.875 C180.62595703 116.55175781 180.62595703 116.55175781 179.54296875 117.2421875 C170.42092209 123.41657472 164.74551701 133.17089823 162.08300781 143.76757812 C159.18213831 159.22455685 162.04708633 173.43489848 170.84375 186.40625 C178.90499171 197.20011601 191.29515476 204.75304395 204.6875 206.875 C220.39378779 208.08470146 233.80994535 203.87546339 245.8125 193.75 C255.67289023 184.4867452 261.82676115 172.16169665 262.72265625 158.5703125 C262.53409518 144.11396342 258.52636109 131.60687874 248.6875 120.875 C237.31725198 111.17419316 223.88502504 105.41314255 208.81640625 105.59765625 C198.72157403 106.49245411 189.93629629 110.14546959 181.6875 115.875 Z " fill="#0060D4" transform="translate(25.3125,109.125)"/>
<path d="M0 0 C4.12357957 2.95410537 7.0958168 6.41910523 10.125 10.4375 C13.82464471 15.25126016 17.60384734 19.95933361 21.5625 24.5625 C26.16739358 29.92583697 30.47898873 35.46353007 34.7109375 41.125 C36.99114123 43.98887363 39.25891474 46.57141632 42 49 C45.17140286 49.33448237 45.17140286 49.33448237 47.421875 46.8203125 C49.78961765 44.23014555 52.04819161 41.60687337 54.25 38.875 C55.02859375 37.91335937 55.8071875 36.95171875 56.609375 35.9609375 C57.79273438 34.49527344 57.79273438 34.49527344 59 33 C60.49859255 31.16551602 61.99857107 29.33216328 63.5 27.5 C64.23992187 26.59507812 64.97984375 25.69015625 65.7421875 24.7578125 C67.26596888 22.89658472 68.79206716 21.0372517 70.3203125 19.1796875 C71.08085937 18.25414062 71.84140625 17.32859375 72.625 16.375 C73.3675 15.47394531 74.11 14.57289063 74.875 13.64453125 C76.86729493 11.1651495 78.7446592 8.62698266 80.625 6.0625 C84.54810372 0.96246517 89.3774281 -2.33828214 95.91015625 -3.2734375 C102.55927419 -3.58718898 107.51158469 -1.73133271 113 2 C116.59484631 5.85788385 117.54036561 9.3881019 118.21484375 14.4609375 C117.60198595 21.70380239 114.02005847 26.77473533 109.25 32 C108.70996338 32.61029053 108.16992676 33.22058105 107.61352539 33.84936523 C106.08479899 35.57466514 104.54348852 37.2879175 103 39 C101.80977515 40.35177233 100.62168885 41.70543686 99.4375 43.0625 C98.63892578 43.97322266 98.63892578 43.97322266 97.82421875 44.90234375 C90.93501443 52.82419112 84.22971679 60.86120368 77.79199219 69.15478516 C74.93422358 72.83511301 72.00055272 76.43482715 69 80 C70.47079084 83.24460895 72.31424176 85.80554495 74.5625 88.5625 C75.27664063 89.44164062 75.99078125 90.32078125 76.7265625 91.2265625 C77.47679687 92.14179688 78.22703125 93.05703125 79 94 C79.72960937 94.89460938 80.45921875 95.78921875 81.2109375 96.7109375 C83.46996395 99.4772541 85.73435092 102.23910577 88 105 C90.1609707 107.63630437 92.32045606 110.27377777 94.4765625 112.9140625 C96.3834791 115.2460503 98.29567515 117.57332476 100.2109375 119.8984375 C118.25953628 141.86275239 118.25953628 141.86275239 118 149 C116.93482623 155.1736602 114.76929806 159.07272583 109.75 162.84765625 C104.70096932 166.17235279 99.94863746 166.80440673 94 166 C86.0023774 163.35320182 81.15977184 157.35315813 75.875 151.0625 C75.40126953 150.50111328 74.92753906 149.93972656 74.43945312 149.36132812 C70.56556262 144.74029362 66.84322283 140.01019185 63.13964844 135.25244141 C59.87948269 131.07994193 56.5399245 126.98430168 53.125 122.9375 C52.46467773 122.15149414 52.46467773 122.15149414 51.79101562 121.34960938 C49.00062635 118.06654863 46.07897985 115.00724734 43 112 C37.36334412 118.5633788 31.80847468 125.16713874 26.5 132 C22.43178241 137.23472116 18.24757629 142.34561991 13.91845703 147.36694336 C11.08256439 150.66665974 8.46063938 154.06548674 5.875 157.5625 C1.6512627 162.85292452 -2.62011472 165.29742455 -9.2890625 166.3671875 C-14.92682391 166.69654126 -19.41208249 165.27851186 -24 162 C-28.1866169 157.92765801 -30.15971077 154.64261538 -30.3125 148.8125 C-30.34988281 147.89082031 -30.38726562 146.96914063 -30.42578125 146.01953125 C-29.49683456 139.43167995 -25.0102763 134.52675606 -20.75 129.6875 C-19.76716999 128.54909065 -18.78540688 127.40975937 -17.8046875 126.26953125 C-17.32612305 125.71475098 -16.84755859 125.1599707 -16.35449219 124.58837891 C-13.80613783 121.59998787 -11.38183873 118.51392397 -8.94140625 115.4375 C-6.91945301 112.89887058 -4.87027731 110.3846667 -2.8125 107.875 C1.09235692 103.11148345 4.98734763 98.34007084 8.875 93.5625 C9.71454224 92.53261963 9.71454224 92.53261963 10.57104492 91.48193359 C11.61037416 90.20394824 12.64408153 88.92136089 13.67089844 87.63330078 C14.73385536 86.32705872 15.86127554 85.07337476 17.0078125 83.83984375 C18.28208443 81.96411005 18.28208443 81.96411005 17.4140625 79.51171875 C15.95392005 76.91815081 14.41344165 74.97682151 12.375 72.8125 C8.75622125 68.86770515 5.38668071 64.79574363 2.0625 60.6015625 C-2.98560324 54.23406864 -8.08963577 47.9463664 -13.5625 41.9375 C-17.93326426 37.12354635 -22.08676167 32.19409511 -26 27 C-26.68642578 26.11054688 -26.68642578 26.11054688 -27.38671875 25.203125 C-30.79659253 20.17804785 -30.87068513 14.8221571 -30 9 C-27.42827536 3.76130166 -23.81320233 0.56289018 -18.75 -2.25 C-11.942621 -4.10655791 -6.23526786 -3.35745192 0 0 Z " fill="#0060D4" transform="translate(342,184)"/>
</svg>
